# xmcd
#
# Track frame offsets:
#	150
#	16232
#	37426
#	48462
#	65989
#	88223
#	105696
#	118327
#	134984
#	153317
#	168090
#	183939
#
# Disc length: 2646 seconds
#
# Revision: 0
# Processed by: cddbd v1.5.2PL0 Copyright (c) Steve Scherf et al.
# Submitted via: EasyCDDAExtractor 12.0.1.1
#
DISCID=b40a540c
DTITLE=Ronnie Milsap - Then Sings My Soul
DYEAR=2009
DGENRE=Gospel
TTITLE0=I'll Fly Away
TTITLE1=How Great Thou Art
TTITLE2=Soon And Very Soon
TTITLE3=Farther Along
TTITLE4=Amazing Grace
TTITLE5=Stand By Me
TTITLE6=Up To Zion
TTITLE7=World Of Wonder
TTITLE8=In The Garden
TTITLE9=Just A Closer Walk With Thee
TTITLE10=Peace In The Valley
TTITLE11=Have Thine Own Way
EXTD=
EXTT0=
EXTT1=
EXTT2=
EXTT3=
EXTT4=
EXTT5=
EXTT6=
EXTT7=
EXTT8=
EXTT9=
EXTT10=
EXTT11=
PLAYORDER=
